<?xml version="1.0" standalone="no"?>
<!DOCTYPE svg PUBLIC "-//W3C//DTD SVG 20010904//EN"
 "http://www.w3.org/TR/2001/REC-SVG-20010904/DTD/svg10.dtd">
<svg version="1.0" xmlns="http://www.w3.org/2000/svg"
 width="800.000000pt" height="800.000000pt" viewBox="0 0 800.000000 800.000000"
 preserveAspectRatio="xMidYMid meet">
<metadata>
Created by potrace 1.16, written by Peter Selinger 2001-2019
</metadata>
<g transform="translate(0.000000,800.000000) scale(0.100000,-0.100000)"
fill="#000000" stroke="none">
<path d="M800 5270 c0 -5 3 -10 8 -10 4 0 5 -50 4 -110 -3 -77 0 -115 8 -125
9 -11 34 -15 85 -15 68 0 73 -1 68 -20 -5 -21 -23 -28 -23 -10 0 7 -51 10
-147 8 -135 -3 -148 -5 -145 -20 2 -14 -4 -18 -28 -18 -20 0 -33 -6 -37 -17
-10 -27 -35 -53 -65 -69 -15 -7 -29 -23 -33 -34 -3 -11 -13 -20 -20 -20 -8 0
-17 -11 -21 -24 -3 -14 -12 -23 -22 -22 -13 1 -18 -10 -22 -44 -3 -25 -8 -44
-12 -42 -26 8 -28 -5 -26 -150 3 -139 5 -153 21 -150 13 2 17 -4 17 -32 0 -26
5 -36 20 -41 11 -4 20 -15 20 -27 0 -11 8 -22 20 -25 11 -3 20 -14 20 -24 0
-13 7 -19 24 -19 16 0 23 -5 22 -17 -1 -12 8 -19 29 -23 18 -3 30 -11 30 -20
0 -10 14 -17 45 -20 31 -3 45 -10 45 -20 0 -13 21 -15 125 -15 113 0 125 2
124 18 -2 14 6 17 43 17 36 0 46 4 50 20 3 11 12 20 19 20 21 0 144 127 144
149 0 12 6 18 18 17 13 -1 18 9 22 49 4 36 9 50 20 50 12 0 15 17 14 95 0 52
-4 106 -8 120 -4 14 2 7 13 -14 12 -22 21 -55 21 -74 0 -25 5 -35 19 -39 15
-4 21 -15 23 -47 2 -33 7 -40 21 -38 12 2 17 -4 17 -21 0 -27 17 -47 41 -47 9
0 19 -9 22 -20 5 -20 14 -20 351 -20 298 0 346 -2 346 -15 0 -19 123 -145 142
-145 9 0 18 -9 21 -20 4 -16 14 -20 47 -20 33 0 40 -3 38 -17 -3 -16 9 -18
125 -21 121 -2 127 -2 127 17 0 17 8 20 48 23 34 2 47 7 47 18 0 9 12 17 30
20 18 3 30 11 30 20 0 8 9 17 20 20 10 3 22 15 25 25 3 11 12 20 20 20 9 0 17
12 20 30 3 17 9 29 13 28 21 -8 27 1 27 36 0 31 4 38 18 37 15 -1 17 12 17
149 0 137 -1 150 -17 147 -14 -2 -18 4 -18 33 0 28 -5 38 -20 42 -11 3 -20 10
-20 15 0 18 -128 138 -147 138 -26 0 -45 44 -25 57 20 12 8 47 -13 39 -11 -4
-15 2 -15 28 0 34 -36 76 -65 76 -8 0 -15 9 -15 20 0 17 -7 20 -40 20 -33 0
-40 3 -40 20 0 19 -7 20 -105 20 -87 0 -105 3 -105 15 0 18 -12 19 -28 3 -16
-16 -15 -28 3 -28 12 0 15 -15 15 -72 -1 -63 -2 -71 -14 -55 -11 14 -30 17
-118 17 -61 0 -108 -4 -115 -11 -7 -7 -13 -7 -17 0 -4 5 -13 8 -21 4 -10 -3
-15 1 -15 15 0 21 -18 32 -51 32 -13 0 -19 6 -17 18 3 14 -6 17 -59 20 -55 3
-63 6 -63 22 0 19 -8 20 -130 20 -104 0 -130 3 -130 14 0 23 -24 26 -191 26
-152 0 -159 -1 -159 -20 0 -11 -6 -20 -14 -20 -7 0 -16 9 -19 20 -3 11 -10 20
-17 20 -7 0 -14 -9 -17 -20 -3 -11 -14 -20 -24 -20 -12 0 -24 -11 -30 -27 -6
-16 -13 -23 -16 -16 -2 7 1 22 7 34 11 20 10 21 -9 16 -16 -4 -21 -1 -21 14 0
15 -7 19 -30 19 -24 0 -30 4 -28 18 3 15 -6 17 -74 17 -43 -1 -78 3 -78 7 0 4
-4 8 -10 8 -5 0 -10 -4 -10 -10z m1060 -328 c0 -4 -10 -12 -22 -17 -14 -6 -24
-21 -26 -36 -2 -17 -11 -29 -23 -32 -26 -7 -24 -63 3 -61 11 1 17 -8 20 -32 2
-19 0 -34 -4 -34 -4 0 -8 5 -8 10 0 6 -13 10 -30 10 -27 0 -35 -8 -31 -32 0
-5 -10 -8 -22 -8 -16 0 -28 -9 -36 -26 -15 -34 -23 -26 -15 14 4 18 14 32 25
35 17 5 19 15 19 104 l0 98 56 -3 c32 -2 61 1 67 7 13 13 27 14 27 3z m-1200
-152 c-12 -22 -6 -40 12 -40 6 0 16 -8 23 -17 10 -14 7 -21 -19 -48 -17 -17
-39 -34 -49 -38 -16 -6 -17 -19 -15 -119 3 -99 5 -113 20 -110 11 2 18 -5 20
-20 2 -15 11 -24 24 -26 12 -2 24 -12 27 -23 5 -17 15 -19 107 -19 93 0 102 2
107 20 3 11 9 20 14 20 17 0 59 44 59 61 0 9 10 19 22 22 16 5 19 9 11 19 -8
9 -7 17 3 26 8 7 14 8 14 2 0 -5 21 -10 48 -11 41 0 44 -2 25 -11 -19 -9 -23
-19 -23 -55 0 -23 -4 -43 -10 -43 -5 0 -10 -7 -10 -15 0 -8 -4 -15 -10 -15 -5
0 -10 -7 -10 -15 0 -9 -8 -19 -17 -22 -10 -4 -25 -14 -34 -24 -9 -11 -33 -19
-60 -21 -35 -2 -43 -6 -41 -20 3 -16 -7 -18 -88 -18 -81 0 -91 2 -88 18 2 14
-6 18 -43 20 -37 2 -48 7 -52 23 -3 11 -14 19 -25 19 -13 0 -19 6 -18 18 0 10
-6 16 -16 16 -14 -1 -18 6 -18 33 0 26 -5 36 -20 40 -19 5 -20 14 -20 119 0
107 1 114 20 114 16 0 20 7 20 35 0 24 6 37 20 45 11 6 20 17 20 25 0 8 8 15
18 15 10 0 24 9 32 20 19 26 34 26 20 0z m2000 4 c0 -10 6 -14 15 -10 8 3 15
1 15 -4 0 -6 5 -10 11 -10 24 0 69 -59 69 -89 0 -24 4 -31 20 -31 19 0 20 -7
20 -116 0 -96 -2 -115 -14 -111 -16 6 -26 -12 -26 -48 0 -15 -7 -25 -21 -28
-15 -4 -20 -11 -16 -21 5 -11 0 -16 -14 -16 -12 0 -23 -8 -26 -20 -4 -16 -14
-20 -49 -20 -37 0 -44 -3 -44 -20 0 -19 -7 -20 -90 -20 -81 0 -91 2 -88 18 2
14 -6 18 -41 20 -25 2 -52 11 -64 23 l-21 19 22 0 c12 0 22 -4 22 -10 0 -18
50 -10 71 11 15 15 20 30 17 50 -3 16 -1 29 4 29 4 0 8 -5 8 -10 0 -7 30 -10
83 -8 69 3 82 6 81 20 -1 9 13 24 32 34 l34 19 0 88 c0 79 -2 89 -19 94 -11 3
-21 13 -24 24 -3 13 -14 19 -31 19 -20 0 -26 5 -26 20 0 19 -5 21 -67 18 -58
-3 -68 -6 -65 -20 2 -12 -3 -18 -14 -18 -23 0 -54 -29 -54 -51 0 -10 -4 -20
-10 -24 -5 -3 -10 22 -12 62 -3 58 -5 68 -20 65 -27 -4 -24 44 2 51 11 3 20
12 20 21 0 14 20 16 155 16 136 0 155 -2 155 -16z"/>
<path d="M3480 5122 c0 -5 -16 -16 -35 -25 -20 -9 -45 -33 -56 -52 -12 -19
-25 -32 -30 -29 -5 3 -9 -112 -10 -278 0 -156 -2 -292 -4 -303 -7 -34 -6 -178
0 -215 4 -19 11 -37 17 -39 6 -2 18 -12 26 -22 16 -18 37 -19 374 -19 197 0
358 3 358 8 0 4 -40 7 -89 7 -49 0 -88 2 -86 6 2 3 59 7 127 8 117 2 154 10
128 26 -7 4 -28 8 -49 9 -34 1 -36 3 -38 36 -1 19 -2 41 -2 48 -1 6 -7 12 -15
12 -8 0 -16 4 -18 10 -1 5 -18 10 -35 12 -18 1 -33 6 -33 10 0 5 -11 6 -25 2
-23 -6 -25 -4 -19 25 l7 32 -169 -1 c-93 0 -175 -1 -183 0 -11 0 -11 3 -1 15
9 11 10 34 5 82 -9 82 -9 213 0 306 5 47 3 72 -5 82 -11 13 21 15 246 16 143
1 267 0 277 -1 14 -1 18 4 15 22 -2 14 2 22 10 20 7 -1 12 8 12 22 0 22 -12
38 -32 42 -5 1 -11 2 -14 3 -4 0 0 9 7 19 7 9 2 7 -12 -6 -24 -21 -26 -21 -42
-5 -8 10 -17 22 -19 28 -2 5 -9 10 -16 12 -20 2 -29 15 -15 20 10 3 10 10 2
24 -8 15 -14 18 -23 10 -10 -8 -17 -7 -25 3 -10 12 -6 14 24 14 20 0 39 3 42
6 4 3 -125 6 -285 6 -161 0 -292 -4 -292 -8z"/>
<path d="M3630 4720 c-8 -20 -11 -57 -8 -105 4 -61 9 -80 28 -100 23 -24 27
-25 171 -25 139 0 149 1 159 20 6 11 15 18 21 15 5 -4 7 -11 4 -16 -4 -5 11
-9 33 -9 38 0 59 18 53 44 -1 5 5 4 13 -4 19 -15 21 -1 3 24 -12 16 -15 16
-26 3 -8 -11 -9 -17 -1 -22 6 -3 8 -11 5 -16 -8 -12 -45 -12 -45 1 0 6 5 10
10 10 6 0 10 5 10 10 0 6 -7 10 -15 10 -11 0 -15 11 -15 43 0 24 -3 47 -7 51
-5 4 -8 13 -8 19 0 7 -10 11 -22 11 -13 -1 -20 2 -18 6 7 11 30 7 47 -8 8 -6
18 -8 22 -4 4 4 13 7 19 7 7 0 12 6 12 14 0 9 -13 16 -35 19 -19 2 -38 8 -41
14 -4 6 -14 8 -24 5 -9 -4 -14 -3 -10 2 3 6 -63 10 -159 10 l-163 2 -13 -31z"/>
<path d="M5080 3630 c0 -5 3 -10 8 -10 4 0 7 -63 7 -140 0 -115 -2 -137 -12
-123 -7 9 -13 20 -13 25 0 4 -59 8 -131 8 -122 0 -131 -1 -136 -20 -4 -16 -14
-20 -50 -20 -36 0 -46 -4 -50 -19 -3 -11 -15 -21 -27 -23 -15 -2 -22 -11 -24
-30 -2 -20 -9 -28 -23 -28 -18 0 -19 -9 -19 -200 0 -193 1 -200 20 -200 11 0
20 -7 20 -15 0 -20 45 -65 65 -65 8 0 15 -9 15 -20 0 -20 5 -20 228 -18 209 3
227 4 226 21 -1 11 5 17 18 17 25 0 68 44 68 70 0 14 5 20 18 18 16 -3 17 21
20 366 3 442 12 410 -120 404 -49 -1 -88 0 -88 5 0 4 -4 7 -10 7 -5 0 -10 -4
-10 -10z m13 -561 c-1 -73 -5 -134 -8 -137 -3 -3 -5 0 -5 7 0 9 -32 12 -122
11 -160 -1 -156 -2 -140 9 10 6 13 34 10 110 l-3 101 128 0 c104 0 129 3 133
15 4 8 7 15 8 15 0 0 0 -59 -1 -131z"/>
<path d="M6030 3610 c-16 -16 -20 -33 -20 -94 0 -40 -3 -88 -6 -105 -4 -20 -3
-31 5 -31 6 0 11 7 11 15 0 12 18 15 101 15 72 0 100 -3 97 -12 -3 -7 -31 -10
-85 -9 -130 4 -123 22 -123 -337 0 -218 3 -301 12 -310 8 -8 46 -12 105 -12
76 0 93 -3 93 -15 0 -18 12 -19 28 -3 16 16 15 28 -3 28 -12 0 -15 46 -17 317
-3 294 -2 317 15 321 21 5 23 42 2 42 -12 0 -15 17 -15 93 0 59 -4 97 -12 105
-7 7 -43 12 -90 12 -65 0 -81 -3 -98 -20z"/>
<path d="M1220 3565 c0 -13 -44 -15 -312 -17 -292 -3 -313 -4 -310 -20 2 -13
-4 -18 -18 -18 -13 0 -28 -12 -38 -29 -9 -17 -25 -32 -34 -35 -13 -3 -18 -14
-18 -39 0 -27 -4 -34 -18 -33 -15 1 -17 -10 -20 -77 -3 -72 -1 -79 18 -84 14
-4 20 -14 20 -35 0 -21 6 -31 19 -35 11 -3 21 -15 23 -27 2 -15 11 -22 31 -24
19 -2 27 -8 25 -20 -3 -15 17 -17 215 -20 148 -2 217 -6 217 -13 0 -6 6 -9 14
-6 8 3 17 -1 20 -9 3 -8 12 -14 21 -14 16 0 20 -27 7 -47 -10 -16 -620 -23
-626 -8 -2 6 -7 6 -12 1 -5 -5 -5 -10 1 -12 6 -3 9 -41 7 -97 -3 -72 -1 -96
11 -105 11 -9 98 -12 348 -10 312 3 334 4 331 21 -2 12 4 17 19 17 19 0 69 44
69 61 0 4 9 9 20 12 16 4 20 14 20 50 0 37 3 45 18 43 14 -1 17 7 17 44 0 37
-3 45 -17 44 -15 -2 -18 7 -18 48 0 39 -4 51 -18 54 -9 3 -25 18 -34 35 -9 16
-24 29 -31 29 -8 0 -17 9 -20 20 -4 17 -14 20 -55 20 -42 0 -51 3 -55 21 -5
20 -11 20 -196 17 l-191 -3 0 33 0 32 263 0 c316 0 297 -8 297 123 0 71 3 87
15 87 18 0 19 12 3 28 -16 16 -28 15 -28 -3z"/>
<path d="M2076 3564 c-18 -17 -18 -19 -3 -22 14 -3 17 -17 17 -94 0 -88 -1
-90 -18 -75 -28 26 -136 23 -162 -3 -18 -18 -20 -31 -18 -108 l3 -87 100 -3
100 -3 -3 -214 c-2 -181 -5 -215 -17 -215 -18 0 -19 -12 -3 -28 16 -16 28 -15
28 3 0 12 17 15 93 15 59 0 97 4 105 12 17 17 17 404 0 415 -7 4 45 10 117 13
l130 5 3 87 c4 119 -5 128 -128 128 -53 0 -90 -4 -90 -10 0 -5 -5 -10 -11 -10
-7 0 -10 30 -7 93 l3 92 -107 -3 c-95 -3 -107 -2 -110 14 -3 16 -4 16 -22 -2z"/>
<path d="M3900 3393 c0 -5 -38 -6 -86 -4 -129 5 -124 15 -124 -248 0 -167 -3
-212 -12 -203 -8 8 -51 12 -129 12 l-118 0 -3 205 c-2 148 -6 208 -16 217 -14
14 -138 24 -177 14 l-25 -6 2 -253 c3 -234 4 -252 21 -249 12 2 17 -4 17 -23
0 -20 7 -28 29 -36 16 -6 31 -19 34 -30 3 -13 14 -19 31 -19 19 0 26 -5 26
-20 0 -20 5 -20 248 -18 244 3 247 3 250 24 2 12 12 24 23 27 19 5 20 13 17
301 -2 163 0 296 5 296 4 0 7 5 7 10 0 6 -4 10 -10 10 -5 0 -10 -3 -10 -7z"/>
<path d="M7133 3370 c-4 -16 -14 -20 -50 -20 -34 0 -46 -4 -49 -18 -3 -9 -18
-25 -35 -34 -16 -10 -29 -25 -29 -36 0 -11 -9 -22 -20 -25 -20 -5 -20 -12 -18
-189 3 -167 5 -183 21 -182 12 1 17 -6 17 -26 0 -19 6 -29 20 -33 11 -3 20
-12 20 -21 0 -10 9 -16 25 -16 19 0 25 -5 23 -17 -3 -17 14 -18 225 -21 222
-2 229 -2 234 18 3 11 11 20 17 20 14 0 56 45 56 61 0 5 8 9 18 7 16 -3 17 13
20 205 2 200 2 209 -17 214 -11 3 -21 15 -23 26 -2 12 -12 24 -23 27 -11 3
-20 12 -20 20 0 10 -13 16 -41 18 -32 2 -43 8 -47 23 -5 18 -15 19 -162 19
-148 0 -157 -1 -162 -20z m279 -296 c-2 -63 1 -100 9 -110 10 -12 -7 -14 -125
-14 -102 0 -136 -3 -136 -12 0 -10 -2 -10 -8 -2 -4 7 -6 62 -4 123 l3 111 132
0 132 0 -3 -96z"/>
</g>
</svg>
